<?xml version="1.0" encoding="UTF-8" standalone="no"?>
<!-- Created with Inkscape (http://www.inkscape.org/) -->

<svg
   version="1.1"
   id="svg2"
   width="382.78"
   height="182.24001"
   viewBox="0 0 382.78 182.24001"
   sodipodi:docname="imbus_Logo (1).ai"
   xmlns:inkscape="http://www.inkscape.org/namespaces/inkscape"
   xmlns:sodipodi="http://sodipodi.sourceforge.net/DTD/sodipodi-0.dtd"
   xmlns="http://www.w3.org/2000/svg"
   xmlns:svg="http://www.w3.org/2000/svg">
  <defs
     id="defs6">
    <clipPath
       clipPathUnits="userSpaceOnUse"
       id="clipPath16">
      <path
         d="M 0,136.68 H 287.085 V 0 H 0 Z"
         id="path14" />
    </clipPath>
  </defs>
  <sodipodi:namedview
     id="namedview4"
     pagecolor="#ffffff"
     bordercolor="#000000"
     borderopacity="0.25"
     inkscape:showpageshadow="2"
     inkscape:pageopacity="0.0"
     inkscape:pagecheckerboard="0"
     inkscape:deskcolor="#d1d1d1" />
  <g
     id="g8"
     inkscape:groupmode="layer"
     inkscape:label="imbus_Logo (1)"
     transform="matrix(1.3333333,0,0,-1.3333333,0,182.24)">
    <g
       id="g10">
      <g
         id="g12"
         clip-path="url(#clipPath16)">
        <g
           id="g18"
           transform="translate(126.2854,8.5912)">
          <path
             d="m 0,0 v 20.931 c 0,4.767 1.293,5.898 2.99,5.898 1.697,0 2.91,-1.131 2.91,-5.898 V 0 h 16.162 v 25.375 c 0,9.372 -7.839,16 -17.375,16 -4.767,0 -9.455,-1.697 -12.766,-5.011 -3.315,3.314 -8.002,5.011 -12.77,5.011 -9.535,0 -17.374,-6.628 -17.374,-16 V 0 h 16.162 v 20.931 c 0,4.767 1.212,5.898 2.91,5.898 1.697,0 2.99,-1.131 2.99,-5.898 V 0 Z"
             style="fill:#00a880;fill-opacity:1;fill-rule:nonzero;stroke:none"
             id="path20" />
        </g>
        <g
           id="g22"
           transform="translate(152.9338,65.0785)">
          <path
             d="m 0,0 v -31.76 c 0,-18.18 10.182,-25.697 22.223,-25.697 11.473,0 20.928,8.728 20.928,21.657 0,11.637 -7.757,20.688 -19.715,20.688 -2.102,0 -3.799,-0.08 -5.497,-0.324 v -15.919 c 1.293,0.486 2.586,0.89 3.959,0.89 2.83,0 5.901,-2.183 5.901,-5.819 0,-3.556 -2.586,-5.818 -5.657,-5.818 -3.394,0 -5.981,2.262 -5.981,7.111 l 0,34.991 z"
             style="fill:#00a880;fill-opacity:1;fill-rule:nonzero;stroke:none"
             id="path24" />
        </g>
        <g
           id="g26"
           transform="translate(222.4826,48.9975)">
          <path
             d="m 0,0 v -21.739 c 0,-3.556 -0.889,-4.768 -2.909,-4.768 -2.022,0 -2.91,1.212 -2.91,4.768 V 0 H -21.98 v -24.243 c 0,-9.375 6.464,-17.133 19.071,-17.133 12.605,0 19.07,7.758 19.07,17.133 V 0 Z"
             style="fill:#00a880;fill-opacity:1;fill-rule:nonzero;stroke:none"
             id="path28" />
        </g>
        <g
           id="g30"
           transform="translate(271.9992,48.9975)">
          <path
             d="m 0,0 h -16.727 c -6.304,0 -12.688,-3.96 -12.688,-10.748 0,-11.314 12.688,-11.314 12.688,-14.547 0,-0.889 -0.567,-1.534 -3.153,-1.534 h -9.696 v -13.577 h 16.728 c 9.049,0 14.221,4.122 14.221,11.232 0,11.314 -12.202,12.202 -12.202,15.111 0,0.648 0.808,1.133 1.456,1.133 H 0 Z"
             style="fill:#00a880;fill-opacity:1;fill-rule:nonzero;stroke:none"
             id="path32" />
        </g>
        <g
           id="g34"
           transform="translate(65.884,57.2377)">
          <path
             d="m 0,0 c 0,4.491 3.698,8.133 8.259,8.133 4.561,0 8.26,-3.642 8.26,-8.133 0,-4.491 -3.699,-8.133 -8.26,-8.133 C 3.698,-8.133 0,-4.491 0,0"
             style="fill:#00a880;fill-opacity:1;fill-rule:nonzero;stroke:none"
             id="path36" />
        </g>
        <g
           id="g38"
           transform="translate(65.884,57.2377)">
          <path
             d="m 0,0 c 0,4.491 3.698,8.133 8.259,8.133 4.561,0 8.26,-3.642 8.26,-8.133 0,-4.491 -3.699,-8.133 -8.26,-8.133 C 3.698,-8.133 0,-4.491 0,0 Z"
             style="fill:none;stroke:#00a880;stroke-width:0.826;stroke-linecap:butt;stroke-linejoin:miter;stroke-miterlimit:3.864;stroke-dasharray:none;stroke-opacity:1"
             id="path40" />
        </g>
        <g
           id="g42"
           transform="translate(82.7004,49.1449)">
          <path
             d="m 0,0 c -2.16,-2.158 -5.145,-3.495 -8.44,-3.495 -3.244,0 -6.187,1.293 -8.337,3.392 V -40.35 H 0.146 Z"
             style="fill:#00a880;fill-opacity:1;fill-rule:nonzero;stroke:none"
             id="path44" />
        </g>
        <g
           id="g46"
           transform="translate(82.7004,49.1449)">
          <path
             d="m 0,0 c -2.16,-2.158 -5.145,-3.495 -8.44,-3.495 -3.244,0 -6.187,1.293 -8.337,3.392 V -40.35 H 0.146 Z"
             style="fill:none;stroke:#00a880;stroke-width:0.417;stroke-linecap:butt;stroke-linejoin:miter;stroke-miterlimit:3.864;stroke-dasharray:none;stroke-opacity:1"
             id="path48" />
        </g>
        <g
           id="g50"
           transform="translate(74.4807,120.6644)">
          <path
             d="m 0,0 -4.425,4.425 4.378,4.38 4.426,-4.427 z"
             style="fill:#00a880;fill-opacity:1;fill-rule:nonzero;stroke:none"
             id="path52" />
        </g>
        <g
           id="g54"
           transform="translate(74.4807,120.6644)">
          <path
             d="m 0,0 -4.425,4.425 4.378,4.38 4.426,-4.427 z"
             style="fill:none;stroke:#00a880;stroke-width:0.826;stroke-linecap:butt;stroke-linejoin:miter;stroke-miterlimit:3.864;stroke-dasharray:none;stroke-opacity:1"
             id="path56" />
        </g>
        <g
           id="g58"
           transform="translate(283.4045,1.517)">
          <path
             d="m 0,0 v -1.517 h -220.263 l -61.119,60.288 c 0,0 -4.551,3.661 0,8.061 l 66.862,66.332 c 0,0 3.685,4.497 7.803,0 l 66.356,-66.332 c 0,0 3.094,-2.402 0.265,-5.244 l -1.023,1.06 c 0,0 1.589,1.336 0.084,2.721 L -208,132.334 c 0,0 -2.401,2.998 -5.201,0 l -67.26,-66.845 c 0,0 -3.196,-2.582 0,-5.472 L -219.595,0 Z"
             style="fill:#33a277;fill-opacity:1;fill-rule:nonzero;stroke:none"
             id="path60" />
        </g>
      </g>
    </g>
  </g>
</svg>
